<?xml version="1.0" encoding="UTF-8"?>
<svg width="149px" height="88px" viewBox="0 0 149 88" version="1.1" xmlns="http://www.w3.org/2000/svg" xmlns:xlink="http://www.w3.org/1999/xlink">
    <!-- Generator: sketchtool 40.3 (33839) - http://www.bohemiancoding.com/sketch -->
    <title>AC3A421B-5F16-4559-A381-C8210C5EB393</title>
    <desc>Created with sketchtool.</desc>
    <defs>
        <linearGradient x1="3.77225806%" y1="16.4895652%" x2="140.963871%" y2="108.944783%" id="linearGradient-1">
            <stop stop-color="#0B80EC" offset="0%"></stop>
            <stop stop-color="#14FFE0" offset="100%"></stop>
        </linearGradient>
    </defs>
    <g id="Application" stroke="none" stroke-width="1" fill="none" fill-rule="evenodd">
        <g id="icons" transform="translate(-310.000000, -141.000000)" fill="url(#linearGradient-1)">
            <path d="M322.7,210.352288 C322.7,210.052288 322.7,209.852288 322.6,209.752288 C322.1,208.952288 321.5,208.352288 320.7,207.852288 C319.9,207.352288 319.1,207.152288 318.3,207.152288 C317.5,207.152288 316.7,207.352288 316,207.752288 C315.3,208.152288 314.6,208.752288 314.1,209.552288 C313.6,210.352288 313.1,211.352288 312.8,212.452288 C312.5,213.552288 312.3,214.952288 312.3,216.352288 C312.3,217.752288 312.5,219.052288 312.8,220.252288 C313.1,221.452288 313.5,222.452288 314.1,223.252288 C314.7,224.052288 315.3,224.752288 316.1,225.152288 C316.9,225.552288 317.7,225.852288 318.5,225.852288 C319.4,225.852288 320.2,225.652288 321.1,225.152288 C321.9,224.652288 322.6,223.952288 323.1,223.152288 L325,224.352288 C324.6,224.952288 324.2,225.452288 323.7,225.952288 C323.2,226.452288 322.7,226.752288 322.1,227.152288 C321.5,227.452288 321,227.652288 320.4,227.852288 C319.8,228.052288 319.3,228.052288 318.7,228.052288 C317.4,228.052288 316.3,227.852288 315.3,227.352288 C314.3,226.852288 313.4,226.252288 312.6,225.252288 C311.8,224.252288 311.1,223.152288 310.7,221.652288 C310.2,220.252288 310,218.452288 310,216.552288 C310,214.352288 310.3,212.552288 310.8,211.052288 C311.3,209.552288 312,208.352288 312.9,207.552288 C313.8,206.652288 314.7,206.052288 315.7,205.652288 C316.7,205.252288 317.6,205.052288 318.5,205.052288 C319.2,205.052288 320,205.152288 320.7,205.352288 C321.4,205.552288 322.1,205.852288 322.7,206.252288 C323.3,206.652288 323.9,207.052288 324.3,207.652288 C324.7,208.252288 325.2,208.752288 325.5,209.452288 L322.9,210.752288 C322.8,210.652288 322.7,210.552288 322.7,210.352288 Z M328.3,205.252288 L330.9,205.252288 L336.7,222.552288 L342.1,205.352288 L344.6,205.352288 L337.1,227.852288 L335.9,227.852288 L328.3,205.252288 Z M368.6,205.352288 L379.7,205.352288 L379.7,207.452288 L375.3,207.452288 L375.3,225.652288 L379.9,225.652288 L379.9,227.752288 L368.3,227.752288 L368.3,225.652288 L372.7,225.652288 L372.7,207.452288 L368.6,207.452288 L368.6,205.352288 Z M400.4,211.952288 C400,210.552288 399.5,209.352288 398.7,208.352288 C397.9,207.352288 397,206.652288 396,206.052288 C395,205.452288 393.4,205.252288 391.5,205.252288 L386.3,205.252288 L386.3,227.752288 L391.1,227.752288 C392.9,227.752288 394.4,227.452288 395.6,226.952288 C396.8,226.452288 397.8,225.752288 398.5,224.752288 C399.3,223.752288 399.8,222.652288 400.3,221.252288 C400.7,219.852288 400.9,218.352288 400.9,216.652288 C401,214.952288 400.8,213.352288 400.4,211.952288 Z M396.7,223.452288 C395.5,224.952288 393.6,225.752288 391.1,225.752288 L388.8,225.752288 L388.8,207.452288 L391.4,207.452288 C393.9,207.452288 395.7,208.252288 396.8,209.952288 C397.9,211.652288 398.4,213.852288 398.4,216.852288 C398.4,219.752288 397.8,221.952288 396.7,223.452288 Z M405.5,205.252288 L419.3,205.252288 L419.3,207.552288 L407.9,207.552288 L407.9,214.852288 L417.3,214.852288 L417.3,217.252288 L407.9,217.252288 L407.9,225.552288 L419.2,225.552288 L419.2,227.752288 L405.5,227.752288 L405.5,205.252288 Z M424.2,227.752288 L424.2,205.352288 L426.6,205.352288 L436,221.952288 L436,205.252288 L438.7,205.252288 C438.7,205.352288 438.7,205.552288 438.6,205.752288 C438.5,205.952288 438.5,206.052288 438.5,206.252288 L438.5,227.752288 L436.5,227.752288 L426.6,210.152288 L426.6,227.752288 L424.2,227.752288 Z M442.5,205.252288 L458.1,205.252288 L458.1,207.552288 L451.4,207.552288 L451.4,227.752288 L448.9,227.752288 L448.9,207.552288 L442.5,207.552288 L442.5,205.252288 Z M404.8,163.752288 L384.1,172.952288 L384.1,176.252288 L408.1,165.652288 C410.4,164.652288 410.4,162.952288 408.1,161.952288 L384.1,151.352288 L384.1,154.652288 L404.8,163.752288 Z M360.5,144.152288 L376.3,151.152288 L376.3,147.952288 L376.4,147.952288 L361.7,141.352288 C359.4,140.352288 357.5,141.552288 357.5,144.052288 L357.5,183.352288 C357.5,185.852288 359.4,187.052288 361.7,186.052288 L376.5,179.552288 L376.4,179.552288 L376.4,176.352288 L360.6,183.352288 L360.5,144.152288 Z" id="logo"></path>
        </g>
    </g>
</svg>